<svg width="258" height="68" viewBox="0 0 258 68" fill="none" xmlns="http://www.w3.org/2000/svg">
<g filter="url(#filter0_d)">
<rect x="4" width="250" height="60" fill="#755139"/>
<g filter="url(#filter1_d)">
<path d="M67.89 43V18.7H72.78C74.4 18.7 75.74 18.92 76.8 19.36C77.86 19.78 78.64 20.47 79.14 21.43C79.66 22.37 79.92 23.61 79.92 25.15C79.92 26.09 79.82 26.95 79.62 27.73C79.42 28.49 79.1 29.14 78.66 29.68C78.22 30.2 77.64 30.58 76.92 30.82L80.37 43H77.1L73.92 31.6H71.28V43H67.89ZM71.28 29.17H72.57C73.53 29.17 74.31 29.05 74.91 28.81C75.51 28.57 75.95 28.16 76.23 27.58C76.51 27 76.65 26.19 76.65 25.15C76.65 23.73 76.39 22.71 75.87 22.09C75.35 21.45 74.32 21.13 72.78 21.13H71.28V29.17ZM87.9766 43.24C86.6166 43.24 85.5666 42.98 84.8266 42.46C84.0866 41.92 83.5666 41.14 83.2666 40.12C82.9866 39.08 82.8466 37.81 82.8466 36.31V32.35C82.8466 30.81 82.9966 29.53 83.2966 28.51C83.5966 27.49 84.1166 26.72 84.8566 26.2C85.6166 25.68 86.6566 25.42 87.9766 25.42C89.4366 25.42 90.5066 25.72 91.1866 26.32C91.8866 26.92 92.3466 27.79 92.5666 28.93C92.7866 30.05 92.8966 31.4 92.8966 32.98V34.39H86.0566V37.87C86.0566 38.57 86.1166 39.14 86.2366 39.58C86.3766 40.02 86.5866 40.35 86.8666 40.57C87.1666 40.77 87.5466 40.87 88.0066 40.87C88.4866 40.87 88.8466 40.76 89.0866 40.54C89.3466 40.3 89.5166 39.97 89.5966 39.55C89.6966 39.11 89.7466 38.6 89.7466 38.02V36.97H92.8666V37.63C92.8666 39.37 92.4966 40.74 91.7566 41.74C91.0166 42.74 89.7566 43.24 87.9766 43.24ZM86.0566 32.65H89.7466V31.09C89.7466 30.37 89.7066 29.77 89.6266 29.29C89.5466 28.79 89.3766 28.42 89.1166 28.18C88.8766 27.92 88.4866 27.79 87.9466 27.79C87.4266 27.79 87.0266 27.91 86.7466 28.15C86.4866 28.39 86.3066 28.8 86.2066 29.38C86.1066 29.94 86.0566 30.72 86.0566 31.72V32.65ZM100.544 43.24C99.1236 43.24 98.0436 42.96 97.3036 42.4C96.5836 41.82 96.0936 41.01 95.8336 39.97C95.5936 38.93 95.4736 37.72 95.4736 36.34V32.35C95.4736 30.89 95.6036 29.65 95.8636 28.63C96.1236 27.59 96.6136 26.8 97.3336 26.26C98.0736 25.7 99.1436 25.42 100.544 25.42C101.804 25.42 102.774 25.63 103.454 26.05C104.154 26.45 104.634 27.06 104.894 27.88C105.154 28.68 105.284 29.68 105.284 30.88V31.9H102.374V30.85C102.374 30.09 102.324 29.49 102.224 29.05C102.124 28.61 101.944 28.29 101.684 28.09C101.424 27.89 101.054 27.79 100.574 27.79C100.054 27.79 99.6536 27.91 99.3736 28.15C99.0936 28.39 98.9036 28.8 98.8036 29.38C98.7236 29.94 98.6836 30.71 98.6836 31.69V37.15C98.6836 38.63 98.8236 39.62 99.1036 40.12C99.3836 40.62 99.8836 40.87 100.604 40.87C101.144 40.87 101.534 40.75 101.774 40.51C102.034 40.25 102.194 39.89 102.254 39.43C102.334 38.97 102.374 38.45 102.374 37.87V36.46H105.284V37.66C105.284 38.82 105.144 39.82 104.864 40.66C104.604 41.5 104.124 42.14 103.424 42.58C102.744 43.02 101.784 43.24 100.544 43.24ZM108.348 43V25.66H111.558V43H108.348ZM108.348 23.08V19.72H111.558V23.08H108.348ZM114.993 48.7V25.66H118.203V27.04C118.583 26.6 119.043 26.22 119.583 25.9C120.123 25.58 120.763 25.42 121.503 25.42C122.403 25.42 123.113 25.66 123.633 26.14C124.173 26.6 124.573 27.19 124.833 27.91C125.093 28.61 125.263 29.33 125.343 30.07C125.423 30.79 125.463 31.41 125.463 31.93V36.13C125.463 37.35 125.343 38.51 125.103 39.61C124.863 40.69 124.423 41.57 123.783 42.25C123.163 42.91 122.283 43.24 121.143 43.24C120.523 43.24 119.973 43.09 119.493 42.79C119.013 42.47 118.583 42.11 118.203 41.71V48.7H114.993ZM120.513 40.72C121.073 40.72 121.473 40.52 121.713 40.12C121.953 39.7 122.103 39.14 122.163 38.44C122.223 37.74 122.253 36.97 122.253 36.13V31.93C122.253 31.21 122.213 30.55 122.133 29.95C122.053 29.33 121.883 28.84 121.623 28.48C121.363 28.12 120.953 27.94 120.393 27.94C119.973 27.94 119.573 28.03 119.193 28.21C118.813 28.39 118.483 28.6 118.203 28.84V39.94C118.503 40.16 118.843 40.35 119.223 40.51C119.603 40.65 120.033 40.72 120.513 40.72ZM133.182 43.24C131.822 43.24 130.772 42.98 130.032 42.46C129.292 41.92 128.772 41.14 128.472 40.12C128.192 39.08 128.052 37.81 128.052 36.31V32.35C128.052 30.81 128.202 29.53 128.502 28.51C128.802 27.49 129.322 26.72 130.062 26.2C130.822 25.68 131.862 25.42 133.182 25.42C134.642 25.42 135.712 25.72 136.392 26.32C137.092 26.92 137.552 27.79 137.772 28.93C137.992 30.05 138.102 31.4 138.102 32.98V34.39H131.262V37.87C131.262 38.57 131.322 39.14 131.442 39.58C131.582 40.02 131.792 40.35 132.072 40.57C132.372 40.77 132.752 40.87 133.212 40.87C133.692 40.87 134.052 40.76 134.292 40.54C134.552 40.3 134.722 39.97 134.802 39.55C134.902 39.11 134.952 38.6 134.952 38.02V36.97H138.072V37.63C138.072 39.37 137.702 40.74 136.962 41.74C136.222 42.74 134.962 43.24 133.182 43.24ZM131.262 32.65H134.952V31.09C134.952 30.37 134.912 29.77 134.832 29.29C134.752 28.79 134.582 28.42 134.322 28.18C134.082 27.92 133.692 27.79 133.152 27.79C132.632 27.79 132.232 27.91 131.952 28.15C131.692 28.39 131.512 28.8 131.412 29.38C131.312 29.94 131.262 30.72 131.262 31.72V32.65ZM148.074 43L148.524 18.7H151.854L156.144 38.41L160.464 18.7H163.764L164.214 43H161.484L161.214 25.36L157.104 43H155.184L151.104 25.36L150.834 43H148.074ZM172.469 43.24C171.109 43.24 170.059 42.98 169.319 42.46C168.579 41.92 168.059 41.14 167.759 40.12C167.479 39.08 167.339 37.81 167.339 36.31V32.35C167.339 30.81 167.489 29.53 167.789 28.51C168.089 27.49 168.609 26.72 169.349 26.2C170.109 25.68 171.149 25.42 172.469 25.42C173.929 25.42 174.999 25.72 175.679 26.32C176.379 26.92 176.839 27.79 177.059 28.93C177.279 30.05 177.389 31.4 177.389 32.98V34.39H170.549V37.87C170.549 38.57 170.609 39.14 170.729 39.58C170.869 40.02 171.079 40.35 171.359 40.57C171.659 40.77 172.039 40.87 172.499 40.87C172.979 40.87 173.339 40.76 173.579 40.54C173.839 40.3 174.009 39.97 174.089 39.55C174.189 39.11 174.239 38.6 174.239 38.02V36.97H177.359V37.63C177.359 39.37 176.989 40.74 176.249 41.74C175.509 42.74 174.249 43.24 172.469 43.24ZM170.549 32.65H174.239V31.09C174.239 30.37 174.199 29.77 174.119 29.29C174.039 28.79 173.869 28.42 173.609 28.18C173.369 27.92 172.979 27.79 172.439 27.79C171.919 27.79 171.519 27.91 171.239 28.15C170.979 28.39 170.799 28.8 170.699 29.38C170.599 29.94 170.549 30.72 170.549 31.72V32.65ZM180.506 43V25.66H183.716V43H180.506ZM180.506 23.08V19.72H183.716V23.08H180.506ZM191.171 43.24C189.751 43.24 188.611 42.8 187.751 41.92C186.891 41.02 186.401 39.84 186.281 38.38L188.951 37.57C189.111 38.67 189.381 39.5 189.761 40.06C190.141 40.6 190.701 40.87 191.441 40.87C192.021 40.87 192.461 40.71 192.761 40.39C193.061 40.05 193.211 39.6 193.211 39.04C193.211 38.54 193.101 38.09 192.881 37.69C192.661 37.29 192.301 36.88 191.801 36.46L188.831 33.91C188.231 33.39 187.721 32.81 187.301 32.17C186.901 31.53 186.701 30.7 186.701 29.68C186.701 28.76 186.881 27.99 187.241 27.37C187.621 26.73 188.141 26.25 188.801 25.93C189.481 25.59 190.271 25.42 191.171 25.42C192.551 25.42 193.601 25.87 194.321 26.77C195.061 27.65 195.481 28.72 195.581 29.98L193.421 30.79C193.341 30.19 193.221 29.67 193.061 29.23C192.901 28.77 192.681 28.42 192.401 28.18C192.121 27.92 191.751 27.79 191.291 27.79C190.771 27.79 190.351 27.97 190.031 28.33C189.731 28.67 189.581 29.08 189.581 29.56C189.581 29.86 189.641 30.16 189.761 30.46C189.901 30.74 190.131 31.02 190.451 31.3L193.511 34.12C193.931 34.5 194.321 34.91 194.681 35.35C195.061 35.79 195.371 36.29 195.611 36.85C195.851 37.41 195.971 38.06 195.971 38.8C195.971 39.78 195.771 40.6 195.371 41.26C194.971 41.92 194.411 42.42 193.691 42.76C192.971 43.08 192.131 43.24 191.171 43.24ZM202.992 43.24C202.092 43.24 201.362 43.07 200.802 42.73C200.262 42.39 199.862 41.91 199.602 41.29C199.362 40.67 199.242 39.94 199.242 39.1V27.79H197.412V25.66H199.242V20.59H202.452V25.66H205.242V27.79H202.452V38.89C202.452 39.57 202.562 40.06 202.782 40.36C203.002 40.64 203.422 40.78 204.042 40.78C204.202 40.78 204.382 40.77 204.582 40.75C204.802 40.73 205.012 40.71 205.212 40.69V43.06C204.812 43.12 204.442 43.16 204.102 43.18C203.762 43.22 203.392 43.24 202.992 43.24ZM212.4 43.24C211.04 43.24 209.99 42.98 209.25 42.46C208.51 41.92 207.99 41.14 207.69 40.12C207.41 39.08 207.27 37.81 207.27 36.31V32.35C207.27 30.81 207.42 29.53 207.72 28.51C208.02 27.49 208.54 26.72 209.28 26.2C210.04 25.68 211.08 25.42 212.4 25.42C213.86 25.42 214.93 25.72 215.61 26.32C216.31 26.92 216.77 27.79 216.99 28.93C217.21 30.05 217.32 31.4 217.32 32.98V34.39H210.48V37.87C210.48 38.57 210.54 39.14 210.66 39.58C210.8 40.02 211.01 40.35 211.29 40.57C211.59 40.77 211.97 40.87 212.43 40.87C212.91 40.87 213.27 40.76 213.51 40.54C213.77 40.3 213.94 39.97 214.02 39.55C214.12 39.11 214.17 38.6 214.17 38.02V36.97H217.29V37.63C217.29 39.37 216.92 40.74 216.18 41.74C215.44 42.74 214.18 43.24 212.4 43.24ZM210.48 32.65H214.17V31.09C214.17 30.37 214.13 29.77 214.05 29.29C213.97 28.79 213.8 28.42 213.54 28.18C213.3 27.92 212.91 27.79 212.37 27.79C211.85 27.79 211.45 27.91 211.17 28.15C210.91 28.39 210.73 28.8 210.63 29.38C210.53 29.94 210.48 30.72 210.48 31.72V32.65ZM220.317 43V25.66H223.527V28.12C224.167 27.06 224.807 26.35 225.447 25.99C226.087 25.63 226.727 25.45 227.367 25.45C227.447 25.45 227.517 25.45 227.577 25.45C227.657 25.45 227.757 25.46 227.877 25.48V29.02C227.637 28.92 227.357 28.84 227.037 28.78C226.737 28.7 226.427 28.66 226.107 28.66C225.607 28.66 225.147 28.78 224.727 29.02C224.327 29.24 223.927 29.68 223.527 30.34V43H220.317Z" fill="#F2EDD7"/>
</g>
<g filter="url(#filter2_d)">
<path d="M27.2498 12.6278V22.1272C28.4526 22.3606 29.5421 22.5415 30.5667 22.6716M27.2498 12.6278C28.4525 12.8149 29.542 12.9586 30.5667 13.0611M27.2498 12.6278C25.0818 12.6973 24.2907 12.4312 23.5643 11.4693C22.2226 11.2069 21.86 10.7847 22.4586 9.15234C22.8894 8.02789 23.4677 7.77947 24.6699 7.53049C25.7393 6.2774 26.6473 5.88246 29.4611 6.37202C30.6293 4.87811 31.7513 4.66119 34.6208 5.44524C39.2268 4.7183 40.3401 5.37857 41.6233 7.0671C44.4707 7.18634 45.3275 7.6177 45.3088 9.15234C46.3253 10.3977 45.5261 10.774 44.2031 11.4693C43.8398 12.5318 43.1738 12.6895 41.6233 12.6278M41.6233 12.6278V22.1272C40.373 22.3581 39.2451 22.5401 38.1852 22.6716M41.6233 12.6278C40.3383 12.8114 39.1827 12.9567 38.0971 13.0611M30.5667 13.0611V22.6716M30.5667 13.0611C32.0005 13.2045 33.3075 13.2671 34.6208 13.2548M30.5667 22.6716C32.0006 22.8536 33.3076 22.9361 34.6208 22.9232M34.6208 13.2548V22.9232M34.6208 13.2548C35.7471 13.2442 36.8779 13.1784 38.0971 13.0611M34.6208 22.9232C35.7741 22.9119 36.9322 22.8271 38.1852 22.6716M38.0971 13.0611L38.1852 22.6716" stroke="#F2EDD7"/>
<path d="M27.2498 9.15235C28.8868 10.0724 29.5881 10.614 29.8296 11.701M31.6724 8.68896C33.3199 10.2502 33.6768 10.8475 33.8837 11.701M41.9918 8.68896C40.1573 9.91005 39.9248 10.5662 40.5176 11.701M36.8321 8.68896C35.637 9.9689 35.861 10.5156 37.5692 11.2376" stroke="#F2EDD7"/>
</g>
<g filter="url(#filter3_d)">
<path d="M31.5967 36.0454C31.5967 35.274 31.5625 34.5074 31.4941 33.7456C31.4355 32.9742 31.3281 32.2417 31.1719 31.5484C31.0254 30.8452 30.8301 30.1958 30.5859 29.6001C30.3516 28.9947 30.0586 28.4722 29.707 28.0327C29.3555 27.5835 28.9404 27.232 28.4619 26.9781C27.9932 26.7242 27.4561 26.5972 26.8506 26.5972C25.9814 26.5972 25.2002 26.8511 24.5068 27.3589C23.8232 27.857 23.2373 28.5308 22.749 29.3804C22.2607 30.2202 21.8848 31.1919 21.6211 32.2954C21.3672 33.3892 21.2402 34.5318 21.2402 35.7232C21.2402 37.0415 21.3818 38.2378 21.665 39.312C21.958 40.3765 22.3242 41.3286 22.7637 42.1685C23.2031 43.0083 23.6816 43.7408 24.1992 44.3658C24.7168 44.9908 25.2002 45.5083 25.6494 45.9185C26.1084 46.3286 26.499 46.6411 26.8213 46.856C27.1533 47.0708 27.3438 47.188 27.3926 47.2076H21.7822C21.5967 47.1197 21.3379 46.9243 21.0059 46.6216C20.6836 46.3189 20.3223 45.9283 19.9219 45.4497C19.5312 44.9712 19.1309 44.4146 18.7207 43.7798C18.3203 43.1353 17.9541 42.437 17.6221 41.6851C17.29 40.9234 17.0166 40.1128 16.8018 39.2534C16.5967 38.3843 16.4941 37.4859 16.4941 36.5581C16.4941 35.9917 16.543 35.3277 16.6406 34.5659C16.748 33.8042 16.9385 33.023 17.2119 32.2222C17.4854 31.4117 17.8564 30.6158 18.3252 29.8345C18.8037 29.0533 19.4092 28.355 20.1416 27.7398C20.874 27.1245 21.7529 26.6265 22.7783 26.2456C23.8037 25.8648 25.0098 25.6743 26.3965 25.6743C27.3145 25.6743 28.1445 25.7622 28.8867 25.938C29.6387 26.104 30.3174 26.3384 30.9229 26.6411C31.5283 26.9341 32.0654 27.2808 32.5342 27.6812C33.0029 28.0816 33.418 28.5113 33.7793 28.9702C34.1406 28.5113 34.5703 28.0816 35.0684 27.6812C35.5664 27.2808 36.1377 26.9341 36.7822 26.6411C37.4268 26.3384 38.1543 26.104 38.9648 25.938C39.7852 25.7622 40.6982 25.6743 41.7041 25.6743C43.0518 25.6743 44.2383 25.8257 45.2637 26.1284C46.2988 26.4312 47.1924 26.8413 47.9443 27.3589C48.7061 27.8667 49.3359 28.4576 49.834 29.1314C50.3418 29.7954 50.7471 30.4937 51.0498 31.2261C51.3623 31.9488 51.582 32.6861 51.709 33.438C51.8359 34.1802 51.8994 34.8784 51.8994 35.5327C51.8994 36.7632 51.7139 37.8863 51.3428 38.9019C50.9717 39.9077 50.4932 40.8159 49.9072 41.6265C49.3213 42.4273 48.6621 43.1402 47.9297 43.7652C47.207 44.3902 46.4893 44.9322 45.7764 45.3911C45.0635 45.8404 44.3945 46.2163 43.7695 46.5191C43.1543 46.812 42.6562 47.0415 42.2754 47.2076H40.9863C41.0352 47.188 41.2207 47.0708 41.543 46.856C41.8652 46.6314 42.2559 46.3091 42.7148 45.8892C43.1738 45.4693 43.6621 44.9419 44.1797 44.3072C44.6973 43.6724 45.1758 42.9253 45.6152 42.0659C46.0547 41.2066 46.4209 40.2349 46.7139 39.1509C47.0068 38.0572 47.1533 36.8413 47.1533 35.5034C47.1533 34.1265 46.9922 32.8863 46.6699 31.7827C46.3477 30.6792 45.9131 29.7466 45.3662 28.9849C44.8291 28.2134 44.2041 27.6226 43.4912 27.2124C42.7783 26.8023 42.0312 26.5972 41.25 26.5972C40.625 26.5972 40.0684 26.7242 39.5801 26.9781C39.0918 27.232 38.6621 27.5835 38.291 28.0327C37.9199 28.4722 37.6025 28.9947 37.3389 29.6001C37.085 30.1958 36.875 30.8452 36.709 31.5484C36.543 32.2417 36.4209 32.9742 36.3428 33.7456C36.2744 34.5074 36.2402 35.274 36.2402 36.0454V47.2076H31.5967V36.0454Z" fill="#F2EDD7"/>
</g>
</g>
<defs>
<filter id="filter0_d" x="0" y="0" width="258" height="68" filterUnits="userSpaceOnUse" color-interpolation-filters="sRGB">
<feFlood flood-opacity="0" result="BackgroundImageFix"/>
<feColorMatrix in="SourceAlpha" type="matrix" values="0 0 0 0 0 0 0 0 0 0 0 0 0 0 0 0 0 0 127 0"/>
<feOffset dy="4"/>
<feGaussianBlur stdDeviation="2"/>
<feColorMatrix type="matrix" values="0 0 0 0 0 0 0 0 0 0 0 0 0 0 0 0 0 0 0.25 0"/>
<feBlend mode="normal" in2="BackgroundImageFix" result="effect1_dropShadow"/>
<feBlend mode="normal" in="SourceGraphic" in2="effect1_dropShadow" result="shape"/>
</filter>
<filter id="filter1_d" x="63.89" y="18.7" width="167.987" height="38" filterUnits="userSpaceOnUse" color-interpolation-filters="sRGB">
<feFlood flood-opacity="0" result="BackgroundImageFix"/>
<feColorMatrix in="SourceAlpha" type="matrix" values="0 0 0 0 0 0 0 0 0 0 0 0 0 0 0 0 0 0 127 0"/>
<feOffset dy="4"/>
<feGaussianBlur stdDeviation="2"/>
<feColorMatrix type="matrix" values="0 0 0 0 0 0 0 0 0 0 0 0 0 0 0 0 0 0 0.25 0"/>
<feBlend mode="normal" in2="BackgroundImageFix" result="effect1_dropShadow"/>
<feBlend mode="normal" in="SourceGraphic" in2="effect1_dropShadow" result="shape"/>
</filter>
<filter id="filter2_d" x="17.6796" y="4.50012" width="32.5897" height="26.9244" filterUnits="userSpaceOnUse" color-interpolation-filters="sRGB">
<feFlood flood-opacity="0" result="BackgroundImageFix"/>
<feColorMatrix in="SourceAlpha" type="matrix" values="0 0 0 0 0 0 0 0 0 0 0 0 0 0 0 0 0 0 127 0"/>
<feOffset dy="4"/>
<feGaussianBlur stdDeviation="2"/>
<feColorMatrix type="matrix" values="0 0 0 0 0 0 0 0 0 0 0 0 0 0 0 0 0 0 0.25 0"/>
<feBlend mode="normal" in2="BackgroundImageFix" result="effect1_dropShadow"/>
<feBlend mode="normal" in="SourceGraphic" in2="effect1_dropShadow" result="shape"/>
</filter>
<filter id="filter3_d" x="12.4941" y="25.6743" width="43.4053" height="29.5332" filterUnits="userSpaceOnUse" color-interpolation-filters="sRGB">
<feFlood flood-opacity="0" result="BackgroundImageFix"/>
<feColorMatrix in="SourceAlpha" type="matrix" values="0 0 0 0 0 0 0 0 0 0 0 0 0 0 0 0 0 0 127 0"/>
<feOffset dy="4"/>
<feGaussianBlur stdDeviation="2"/>
<feColorMatrix type="matrix" values="0 0 0 0 0 0 0 0 0 0 0 0 0 0 0 0 0 0 0.25 0"/>
<feBlend mode="normal" in2="BackgroundImageFix" result="effect1_dropShadow"/>
<feBlend mode="normal" in="SourceGraphic" in2="effect1_dropShadow" result="shape"/>
</filter>
</defs>
</svg>
